<?xml version="1.0" encoding="utf-8"?>
<!-- Generator: Adobe Illustrator 16.0.0, SVG Export Plug-In . SVG Version: 6.00 Build 0)  -->
<!DOCTYPE svg PUBLIC "-//W3C//DTD SVG 1.1//EN" "http://www.w3.org/Graphics/SVG/1.1/DTD/svg11.dtd">
<svg version="1.1" id="Layer_1" xmlns="http://www.w3.org/2000/svg" xmlns:xlink="http://www.w3.org/1999/xlink" x="0px" y="0px"
	 width="720px" height="720px" viewBox="0 0 720 720" enable-background="new 0 0 720 720" xml:space="preserve">
<path d="M687.849,204.148L687.849,204.148L312.964,587.46l0,0c-8.422,8.422-21.061,14.04-35.101,14.04
	c-14.04,0-25.273-5.618-35.101-14.04l0,0L30.748,371.232l0,0c-8.425-8.425-14.042-21.062-14.042-35.102
	c0-28.081,22.466-50.546,49.143-50.546c14.041,0,25.272,5.616,35.102,14.041l0,0L277.863,480.75l341.188-348.209l0,0
	c8.425-8.425,21.061-14.041,35.103-14.041c26.676,0,49.141,22.465,49.141,50.547C701.893,183.087,696.274,195.724,687.849,204.148z"
	/>
</svg>
