<?xml version="1.0" encoding="utf-8"?>
<!-- Generator: Adobe Illustrator 16.0.0, SVG Export Plug-In . SVG Version: 6.00 Build 0)  -->
<!DOCTYPE svg PUBLIC "-//W3C//DTD SVG 1.1//EN" "http://www.w3.org/Graphics/SVG/1.1/DTD/svg11.dtd">
<svg version="1.1" id="Layer_1" xmlns="http://www.w3.org/2000/svg" xmlns:xlink="http://www.w3.org/1999/xlink" x="0px" y="0px"
	 width="720px" height="720px" viewBox="0 0 720 720" enable-background="new 0 0 720 720" xml:space="preserve">
<path d="M481.381,284.63c0-34.474,27.953-62.421,62.421-62.421c34.474,0,62.427,27.953,62.427,62.421
	c0,34.445-27.953,62.393-62.427,62.393C509.334,347.023,481.381,319.081,481.381,284.63z"/>
<path d="M297.688,284.63c0-34.474,27.953-62.421,62.427-62.421c34.479,0,62.421,27.953,62.421,62.421
	c0,34.445-27.947,62.393-62.421,62.393S297.688,319.081,297.688,284.63z"/>
<path d="M114.002,284.63c0-34.474,27.953-62.421,62.427-62.421c34.468,0,62.416,27.953,62.416,62.421
	c0,34.445-27.948,62.393-62.416,62.393C141.955,347.023,114.002,319.081,114.002,284.63z"/>
</svg>
