<?xml version="1.0" encoding="utf-8"?>
<!-- Generator: Adobe Illustrator 16.0.0, SVG Export Plug-In . SVG Version: 6.00 Build 0)  -->
<!DOCTYPE svg PUBLIC "-//W3C//DTD SVG 1.1//EN" "http://www.w3.org/Graphics/SVG/1.1/DTD/svg11.dtd">
<svg version="1.1" id="Layer_1" xmlns="http://www.w3.org/2000/svg" xmlns:xlink="http://www.w3.org/1999/xlink" x="0px" y="0px"
	 width="1000px" height="1000px" viewBox="0 0 1000 1000" enable-background="new 0 0 1000 1000" xml:space="preserve">
<g>
	<path d="M917.969,516.617v-66.47c0-32.803-3.978-38.774-38.774-38.774H585.619V117.798c0-32.803-5.317-38.774-38.774-38.774h-66.47
		c-34.343,0-49.853,5.971-49.853,38.774v293.576H125.868c-32.803,0-49.853,5.317-49.853,38.774v66.47
		c0,34.343,17.05,49.853,49.853,49.853h304.654v304.654c0,33.457,16.185,49.853,49.853,49.853h66.47
		c32.802,0,38.774-15.056,38.774-49.853V566.47h293.575C912.651,566.47,917.969,550.285,917.969,516.617z"/>
</g>
</svg>
