<?xml version="1.0" encoding="utf-8"?>
<!-- Generator: Adobe Illustrator 16.0.0, SVG Export Plug-In . SVG Version: 6.00 Build 0)  -->
<!DOCTYPE svg PUBLIC "-//W3C//DTD SVG 1.1//EN" "http://www.w3.org/Graphics/SVG/1.1/DTD/svg11.dtd">
<svg version="1.1" id="Layer_1" xmlns="http://www.w3.org/2000/svg" xmlns:xlink="http://www.w3.org/1999/xlink" x="0px" y="0px"
	 width="720px" height="720px" viewBox="0 0 720 720" enable-background="new 0 0 720 720" xml:space="preserve">
<g>
	<path d="M685.436,619.891L513.816,448.28c31.427-44.088,49.984-97.945,49.984-156.08c0-148.658-120.944-269.6-269.601-269.6
		c-148.658,0-269.6,120.942-269.6,269.6c0,148.657,120.942,269.601,269.6,269.601c58.134,0,111.991-18.558,156.08-49.984
		l171.619,171.619c8.762,8.779,20.273,13.164,31.767,13.164c11.495,0,23.008-4.385,31.77-13.156
		C702.987,665.894,702.987,637.44,685.436,619.891z M294.2,471.934c-99.267,0-179.733-80.466-179.733-179.733
		c0-99.267,80.466-179.733,179.733-179.733c99.268,0,179.733,80.466,179.733,179.733C473.934,391.468,393.468,471.934,294.2,471.934
		z"/>
</g>
</svg>
