<?xml version="1.0" encoding="utf-8"?>
<!-- Generator: Adobe Illustrator 16.0.0, SVG Export Plug-In . SVG Version: 6.00 Build 0)  -->
<!DOCTYPE svg PUBLIC "-//W3C//DTD SVG 1.1//EN" "http://www.w3.org/Graphics/SVG/1.1/DTD/svg11.dtd">
<svg version="1.1" id="Layer_1" xmlns="http://www.w3.org/2000/svg" xmlns:xlink="http://www.w3.org/1999/xlink" x="0px" y="0px"
	 width="720px" height="720px" viewBox="0 0 720 720" enable-background="new 0 0 720 720" xml:space="preserve">
<path fill="#E18FA9" d="M431.77,169.92v30.758c0,58.81-47.808,106.56-106.56,106.56c-58.752,0-106.561-47.75-106.561-106.56V169.92
	c0-58.752,47.808-106.56,106.561-106.56C383.962,63.36,431.77,111.168,431.77,169.92z"/>
<path fill="#E18FA9" d="M486.72,351.36c-44.536,0-80.64,36.104-80.64,80.64s36.104,80.64,80.64,80.64S567.36,476.536,567.36,432
	S531.256,351.36,486.72,351.36z M538.561,443.52H434.88V420.48h103.681V443.52z"/>
<path fill="#E18FA9" d="M383.04,432c0-40.476,23.362-75.508,57.266-92.581c-12.557-9.792-26.836-17.562-42.405-22.62
	c-21.023,13.179-45.965,20.782-72.69,20.782c-26.669,0-51.552-7.545-72.519-20.672c-54.778,17.914-94.292,68.549-94.292,128.142
	v50.694c0,9.349,7.718,16.894,17.28,16.894h246.015C398.154,493.62,383.04,464.556,383.04,432z"/>
</svg>
