<?xml version="1.0" encoding="utf-8"?>
<!-- Generator: Adobe Illustrator 16.0.0, SVG Export Plug-In . SVG Version: 6.00 Build 0)  -->
<!DOCTYPE svg PUBLIC "-//W3C//DTD SVG 1.1//EN" "http://www.w3.org/Graphics/SVG/1.1/DTD/svg11.dtd">
<svg version="1.1" id="Layer_1" xmlns="http://www.w3.org/2000/svg" xmlns:xlink="http://www.w3.org/1999/xlink" x="0px" y="0px"
	 width="720px" height="720px" viewBox="0 0 720 720" enable-background="new 0 0 720 720" xml:space="preserve">
<path fill="#7775B1" d="M222.928,306.072C118.672,306.072,34,390.744,34,495s84.672,188.928,188.928,188.928
	S411.855,599.256,411.855,495S327.184,306.072,222.928,306.072z M222.928,663.768C130.192,663.768,54.16,588.312,54.16,495
	c0-92.736,75.456-168.768,168.768-168.768S391.695,401.688,391.695,495C391.695,587.736,315.664,663.768,222.928,663.768z
	 M267.28,488.088c4.032,4.032,4.032,10.368,0,14.4l-50.688,50.688c-1.728,1.729-4.608,2.88-6.912,2.88
	c-2.304,0-5.184-1.151-6.912-2.88c-4.032-4.032-4.032-10.368,0-14.4L246.544,495l-43.776-43.776c-4.032-4.032-4.032-10.368,0-14.399
	c4.032-4.032,10.368-4.032,14.4,0L267.28,488.088z"/>
<text transform="matrix(1 0 0 1 -133 869.3984)" font-family="'HelveticaNeue-Bold'" font-size="28.8">Created by Gregor Črešnar</text>
<text transform="matrix(1 0 0 1 -133 898.1992)" font-family="'HelveticaNeue-Bold'" font-size="28.8">from the Noun Project</text>
</svg>
